<mxfile host="app.diagrams.net" agent="Mozilla/5.0 (Windows NT 10.0; Win64; x64) AppleWebKit/537.36 (KHTML, like Gecko) Chrome/129.0.0.0 Safari/537.36" version="24.7.16">
  <diagram name="Page-1" id="mNfgXafltInSjLivuXOZ">
    <mxGraphModel dx="2385" dy="1480" grid="1" gridSize="12" guides="1" tooltips="1" connect="1" arrows="1" fold="1" page="1" pageScale="1" pageWidth="827" pageHeight="1169" math="0" shadow="0">
      <root>
        <mxCell id="0" />
        <mxCell id="1" parent="0" />
        <mxCell id="NGPrD5tqcstNBQuEpWl6-14" value="" style="rounded=1;whiteSpace=wrap;html=1;" vertex="1" parent="1">
          <mxGeometry x="382.5" y="72" width="948" height="476" as="geometry" />
        </mxCell>
        <mxCell id="kWubPV6db5KJRngbSQ9j-5" value="" style="edgeStyle=orthogonalEdgeStyle;rounded=0;orthogonalLoop=1;jettySize=auto;html=1;" parent="1" source="kWubPV6db5KJRngbSQ9j-1" target="kWubPV6db5KJRngbSQ9j-4" edge="1">
          <mxGeometry relative="1" as="geometry" />
        </mxCell>
        <mxCell id="kWubPV6db5KJRngbSQ9j-1" value="" style="rounded=0;whiteSpace=wrap;html=1;" parent="1" vertex="1">
          <mxGeometry x="60" y="156" width="300" height="248" as="geometry" />
        </mxCell>
        <mxCell id="kWubPV6db5KJRngbSQ9j-2" value="&lt;font style=&quot;font-size: 14px;&quot;&gt;Define Parameter Grid&lt;/font&gt;" style="rounded=0;whiteSpace=wrap;html=1;" parent="1" vertex="1">
          <mxGeometry x="72" y="180" width="276" height="36" as="geometry" />
        </mxCell>
        <mxCell id="kWubPV6db5KJRngbSQ9j-3" value="&lt;div style=&quot;line-height: 19px; white-space: pre; font-size: 13px;&quot;&gt;&lt;p style=&quot;background-color: rgb(31, 31, 31); color: rgb(204, 204, 204);&quot;&gt;&lt;/p&gt;&lt;p style=&quot;&quot;&gt;&lt;/p&gt;&lt;div style=&quot;&quot;&gt;&lt;div style=&quot;line-height: 19px; font-size: 12px;&quot;&gt;&lt;p style=&quot;&quot;&gt;&lt;/p&gt;&lt;div style=&quot;text-align: justify;&quot;&gt;&lt;span style=&quot;background-color: rgb(255, 255, 255);&quot;&gt;   &#39;learning_rate&#39;: Real(0.001, 0.5, prior=&#39;uniform&#39;),&lt;/span&gt;&lt;/div&gt;&lt;span style=&quot;background-color: rgb(255, 255, 255);&quot;&gt;&lt;div style=&quot;text-align: justify;&quot;&gt;&lt;span style=&quot;font-family: ioStfBAkOIASzjVcxTaC;&quot;&gt;&amp;nbsp; &amp;nbsp; &#39;max_iter&#39;: Integer(100, 500),&lt;/span&gt;&lt;/div&gt;&lt;font style=&quot;font-size: 12px;&quot; face=&quot;ioStfBAkOIASzjVcxTaC&quot;&gt;&lt;div style=&quot;text-align: justify;&quot;&gt;&amp;nbsp; &amp;nbsp; &#39;max_leaf_nodes&#39;: Integer(20, 100),&lt;/div&gt;&lt;/font&gt;&lt;font style=&quot;font-size: 12px;&quot; face=&quot;ioStfBAkOIASzjVcxTaC&quot;&gt;&lt;div style=&quot;text-align: justify;&quot;&gt;&amp;nbsp; &amp;nbsp; &#39;max_depth&#39;: Integer(5, 25),&lt;/div&gt;&lt;/font&gt;&lt;font style=&quot;font-size: 12px;&quot; face=&quot;ioStfBAkOIASzjVcxTaC&quot;&gt;&lt;div style=&quot;text-align: justify;&quot;&gt;&amp;nbsp; &amp;nbsp; &#39;min_samples_leaf&#39;: Integer(10, 50),&lt;/div&gt;&lt;/font&gt;&lt;font style=&quot;font-size: 12px;&quot; face=&quot;ioStfBAkOIASzjVcxTaC&quot;&gt;&lt;div style=&quot;text-align: justify;&quot;&gt;&amp;nbsp; &amp;nbsp; &#39;l2_regularization&#39;: Real(0, 2, prior=&#39;uniform&#39;)&lt;/div&gt;&lt;/font&gt;&lt;/span&gt;&lt;p&gt;&lt;/p&gt;&lt;/div&gt;&lt;/div&gt;&lt;p&gt;&lt;/p&gt;&lt;p style=&quot;background-color: rgb(31, 31, 31); color: rgb(204, 204, 204);&quot;&gt;&lt;/p&gt;&lt;/div&gt;" style="rounded=1;whiteSpace=wrap;html=1;align=left;fillColor=none;" parent="1" vertex="1">
          <mxGeometry x="72" y="228" width="276" height="160" as="geometry" />
        </mxCell>
        <mxCell id="kWubPV6db5KJRngbSQ9j-9" value="" style="edgeStyle=orthogonalEdgeStyle;rounded=0;orthogonalLoop=1;jettySize=auto;html=1;" parent="1" source="kWubPV6db5KJRngbSQ9j-4" target="kWubPV6db5KJRngbSQ9j-8" edge="1">
          <mxGeometry relative="1" as="geometry" />
        </mxCell>
        <mxCell id="kWubPV6db5KJRngbSQ9j-4" value="" style="rounded=0;whiteSpace=wrap;html=1;" parent="1" vertex="1">
          <mxGeometry x="410" y="160" width="262" height="240" as="geometry" />
        </mxCell>
        <mxCell id="kWubPV6db5KJRngbSQ9j-6" value="&lt;font style=&quot;font-size: 14px;&quot;&gt;Initialize Gaussian Process&lt;/font&gt;" style="rounded=0;whiteSpace=wrap;html=1;" parent="1" vertex="1">
          <mxGeometry x="431.25" y="180" width="228.75" height="36" as="geometry" />
        </mxCell>
        <mxCell id="kWubPV6db5KJRngbSQ9j-7" value="&lt;div style=&quot;line-height: 19px; white-space: pre;&quot;&gt;&lt;p style=&quot;background-color: rgb(31, 31, 31); color: rgb(204, 204, 204);&quot;&gt;&lt;/p&gt;&lt;p style=&quot;&quot;&gt;&lt;/p&gt;&lt;div style=&quot;text-align: center;&quot;&gt;           Start with an initial set of random &lt;/div&gt;&lt;div style=&quot;text-align: center;&quot;&gt;parameter samples to build the&lt;/div&gt;&lt;div style=&quot;text-align: center;&quot;&gt; Gaussian Process model.&lt;br&gt;&lt;/div&gt;&lt;p&gt;&lt;/p&gt;&lt;p style=&quot;background-color: rgb(31, 31, 31); color: rgb(204, 204, 204);&quot;&gt;&lt;/p&gt;&lt;/div&gt;" style="rounded=1;whiteSpace=wrap;html=1;align=left;fillColor=none;" parent="1" vertex="1">
          <mxGeometry x="423.75" y="250" width="236.25" height="80" as="geometry" />
        </mxCell>
        <mxCell id="kWubPV6db5KJRngbSQ9j-16" style="edgeStyle=orthogonalEdgeStyle;rounded=0;orthogonalLoop=1;jettySize=auto;html=1;exitX=1;exitY=0.5;exitDx=0;exitDy=0;entryX=0;entryY=0.5;entryDx=0;entryDy=0;" parent="1" source="kWubPV6db5KJRngbSQ9j-8" target="kWubPV6db5KJRngbSQ9j-12" edge="1">
          <mxGeometry relative="1" as="geometry" />
        </mxCell>
        <mxCell id="kWubPV6db5KJRngbSQ9j-8" value="" style="rounded=0;whiteSpace=wrap;html=1;" parent="1" vertex="1">
          <mxGeometry x="744" y="160" width="222" height="240" as="geometry" />
        </mxCell>
        <mxCell id="kWubPV6db5KJRngbSQ9j-10" value="&lt;font style=&quot;font-size: 14px;&quot;&gt;Train and Evaluate Model&lt;/font&gt;" style="rounded=0;whiteSpace=wrap;html=1;" parent="1" vertex="1">
          <mxGeometry x="759" y="180" width="195" height="36" as="geometry" />
        </mxCell>
        <mxCell id="kWubPV6db5KJRngbSQ9j-11" value="&lt;div style=&quot;line-height: 19px; white-space: pre;&quot;&gt;&lt;p style=&quot;background-color: rgb(31, 31, 31); color: rgb(204, 204, 204);&quot;&gt;&lt;/p&gt;&lt;p style=&quot;&quot;&gt;&lt;/p&gt;&lt;div style=&quot;text-align: center;&quot;&gt;&lt;font style=&quot;font-size: 12px;&quot; color=&quot;#0a0a0a&quot;&gt;   Use negative mean square error &lt;/font&gt;&lt;/div&gt;&lt;div style=&quot;text-align: center;&quot;&gt;&lt;font color=&quot;#0a0a0a&quot;&gt;and cross fold validation = 5 to&lt;/font&gt;&lt;/div&gt;&lt;div style=&quot;text-align: center;&quot;&gt;&lt;font color=&quot;#0a0a0a&quot;&gt;evaluate.&lt;/font&gt;&lt;/div&gt;&lt;p&gt;&lt;/p&gt;&lt;p style=&quot;background-color: rgb(31, 31, 31); color: rgb(204, 204, 204);&quot;&gt;&lt;/p&gt;&lt;/div&gt;" style="rounded=1;whiteSpace=wrap;html=1;align=left;fillColor=none;" parent="1" vertex="1">
          <mxGeometry x="759" y="250" width="195" height="80" as="geometry" />
        </mxCell>
        <mxCell id="kWubPV6db5KJRngbSQ9j-12" value="" style="rounded=0;whiteSpace=wrap;html=1;" parent="1" vertex="1">
          <mxGeometry x="1092" y="160" width="204" height="240" as="geometry" />
        </mxCell>
        <mxCell id="kWubPV6db5KJRngbSQ9j-13" value="&lt;font style=&quot;font-size: 14px;&quot;&gt;Acquisition Function&lt;/font&gt;" style="rounded=0;whiteSpace=wrap;html=1;" parent="1" vertex="1">
          <mxGeometry x="1107" y="180" width="170" height="36" as="geometry" />
        </mxCell>
        <mxCell id="kWubPV6db5KJRngbSQ9j-14" value="&lt;div style=&quot;line-height: 19px; white-space: pre;&quot;&gt;&lt;p style=&quot;background-color: rgb(31, 31, 31); color: rgb(204, 204, 204);&quot;&gt;&lt;/p&gt;&lt;p style=&quot;&quot;&gt;&lt;/p&gt;&lt;div style=&quot;text-align: center;&quot;&gt;&lt;font color=&quot;#0a0a0a&quot;&gt;   Determine where to search &lt;/font&gt;&lt;/div&gt;&lt;div style=&quot;text-align: center;&quot;&gt;&lt;font color=&quot;#0a0a0a&quot;&gt;next , balancing both exploration&lt;/font&gt;&lt;/div&gt;&lt;div style=&quot;text-align: center;&quot;&gt;&lt;font color=&quot;#0a0a0a&quot;&gt; and exploitation&lt;/font&gt;&lt;/div&gt;&lt;p&gt;&lt;/p&gt;&lt;p style=&quot;background-color: rgb(31, 31, 31); color: rgb(204, 204, 204);&quot;&gt;&lt;/p&gt;&lt;/div&gt;" style="rounded=1;whiteSpace=wrap;html=1;align=left;fillColor=none;" parent="1" vertex="1">
          <mxGeometry x="1107" y="250" width="177" height="80" as="geometry" />
        </mxCell>
        <mxCell id="NGPrD5tqcstNBQuEpWl6-5" value="new set of hyperparameters is selected&lt;div&gt;&amp;nbsp;by maximizing the acquisition function.&lt;/div&gt;" style="html=1;shadow=0;dashed=0;align=center;verticalAlign=middle;shape=mxgraph.arrows2.arrow;dy=0;dx=26.29;flipH=1;notch=30.14;" vertex="1" parent="1">
          <mxGeometry x="912" y="456" width="276" height="48" as="geometry" />
        </mxCell>
        <mxCell id="NGPrD5tqcstNBQuEpWl6-8" value="" style="endArrow=classic;html=1;rounded=0;entryX=0.618;entryY=1.005;entryDx=0;entryDy=0;exitX=1;exitY=0.5;exitDx=0;exitDy=0;exitPerimeter=0;entryPerimeter=0;" edge="1" parent="1" source="NGPrD5tqcstNBQuEpWl6-5" target="kWubPV6db5KJRngbSQ9j-8">
          <mxGeometry width="50" height="50" relative="1" as="geometry">
            <mxPoint x="648" y="470" as="sourcePoint" />
            <mxPoint x="698" y="420" as="targetPoint" />
            <Array as="points">
              <mxPoint x="881" y="480" />
            </Array>
          </mxGeometry>
        </mxCell>
        <mxCell id="NGPrD5tqcstNBQuEpWl6-10" value="" style="endArrow=none;html=1;rounded=0;entryX=0.5;entryY=1;entryDx=0;entryDy=0;exitX=0;exitY=0.5;exitDx=30.14;exitDy=0;exitPerimeter=0;" edge="1" parent="1" source="NGPrD5tqcstNBQuEpWl6-5" target="kWubPV6db5KJRngbSQ9j-12">
          <mxGeometry width="50" height="50" relative="1" as="geometry">
            <mxPoint x="648" y="470" as="sourcePoint" />
            <mxPoint x="698" y="420" as="targetPoint" />
            <Array as="points">
              <mxPoint x="1194" y="480" />
            </Array>
          </mxGeometry>
        </mxCell>
        <mxCell id="NGPrD5tqcstNBQuEpWl6-11" value="GP is updated with the new results&lt;span style=&quot;background-color: initial;&quot;&gt;.&lt;/span&gt;" style="html=1;shadow=0;dashed=0;align=center;verticalAlign=middle;shape=mxgraph.arrows2.arrow;dy=0;dx=26.29;flipH=1;notch=30.14;" vertex="1" parent="1">
          <mxGeometry x="571" y="460" width="276" height="48" as="geometry" />
        </mxCell>
        <mxCell id="NGPrD5tqcstNBQuEpWl6-12" value="" style="endArrow=classic;html=1;rounded=0;entryX=0.618;entryY=1.005;entryDx=0;entryDy=0;exitX=1;exitY=0.5;exitDx=0;exitDy=0;exitPerimeter=0;entryPerimeter=0;" edge="1" parent="1" source="NGPrD5tqcstNBQuEpWl6-11">
          <mxGeometry width="50" height="50" relative="1" as="geometry">
            <mxPoint x="307" y="474" as="sourcePoint" />
            <mxPoint x="540" y="405" as="targetPoint" />
            <Array as="points">
              <mxPoint x="540" y="484" />
            </Array>
          </mxGeometry>
        </mxCell>
        <mxCell id="NGPrD5tqcstNBQuEpWl6-13" value="" style="endArrow=none;html=1;rounded=0;entryX=0.5;entryY=1;entryDx=0;entryDy=0;exitX=0;exitY=0.5;exitDx=30.14;exitDy=0;exitPerimeter=0;" edge="1" parent="1" source="NGPrD5tqcstNBQuEpWl6-11">
          <mxGeometry width="50" height="50" relative="1" as="geometry">
            <mxPoint x="307" y="474" as="sourcePoint" />
            <mxPoint x="853" y="404" as="targetPoint" />
            <Array as="points">
              <mxPoint x="853" y="484" />
            </Array>
          </mxGeometry>
        </mxCell>
        <mxCell id="NGPrD5tqcstNBQuEpWl6-15" value="&lt;font style=&quot;font-size: 16px;&quot;&gt;Iterative process ( n_iter=50 )&lt;/font&gt;" style="text;html=1;align=center;verticalAlign=middle;whiteSpace=wrap;rounded=0;" vertex="1" parent="1">
          <mxGeometry x="684" y="96" width="324" height="30" as="geometry" />
        </mxCell>
        <mxCell id="NGPrD5tqcstNBQuEpWl6-16" value="" style="endArrow=classic;html=1;rounded=0;" edge="1" parent="1">
          <mxGeometry width="50" height="50" relative="1" as="geometry">
            <mxPoint x="1330.5" y="262" as="sourcePoint" />
            <mxPoint x="1416" y="262" as="targetPoint" />
          </mxGeometry>
        </mxCell>
        <mxCell id="NGPrD5tqcstNBQuEpWl6-17" value="" style="rounded=0;whiteSpace=wrap;html=1;" vertex="1" parent="1">
          <mxGeometry x="1416" y="192" width="228" height="168" as="geometry" />
        </mxCell>
        <mxCell id="NGPrD5tqcstNBQuEpWl6-18" value="&lt;font style=&quot;font-size: 14px;&quot;&gt;Prediction&lt;/font&gt;" style="rounded=0;whiteSpace=wrap;html=1;" vertex="1" parent="1">
          <mxGeometry x="1440" y="212" width="168" height="28" as="geometry" />
        </mxCell>
        <mxCell id="NGPrD5tqcstNBQuEpWl6-19" value="&lt;div style=&quot;line-height: 19px; white-space: pre;&quot;&gt;&lt;p style=&quot;background-color: rgb(31, 31, 31); color: rgb(204, 204, 204);&quot;&gt;&lt;/p&gt;&lt;p style=&quot;&quot;&gt;&lt;/p&gt;&lt;div style=&quot;text-align: center;&quot;&gt;  Train the model with the best &lt;/div&gt;&lt;div style=&quot;text-align: center;&quot;&gt;  parameter combination identified&lt;/div&gt;&lt;div style=&quot;text-align: center;&quot;&gt;by the GP&lt;/div&gt;&lt;p&gt;&lt;/p&gt;&lt;p style=&quot;background-color: rgb(31, 31, 31); color: rgb(204, 204, 204);&quot;&gt;&lt;/p&gt;&lt;/div&gt;" style="rounded=1;whiteSpace=wrap;html=1;align=left;fillColor=none;" vertex="1" parent="1">
          <mxGeometry x="1440" y="264" width="188.25" height="68" as="geometry" />
        </mxCell>
      </root>
    </mxGraphModel>
  </diagram>
</mxfile>
